<svg xmlns="http://www.w3.org/2000/svg" xmlns:xlink="http://www.w3.org/1999/xlink" width="483.17" height="588.474" viewBox="0 0 483.17 588.474"><defs><linearGradient id="a" x1="0.5" x2="0.5" y2="1" gradientUnits="objectBoundingBox"><stop offset="0" stop-color="#eff6f9"/><stop offset="1" stop-color="#ceeffd" stop-opacity="0.29"/></linearGradient><linearGradient id="c" x1="0.5" x2="0.5" y2="1" gradientUnits="objectBoundingBox"><stop offset="0" stop-color="#eff6f9"/><stop offset="1" stop-color="#ceeffd" stop-opacity="0.071"/></linearGradient><linearGradient id="d" x1="0.5" x2="0.5" y2="1" gradientUnits="objectBoundingBox"><stop offset="0" stop-color="#eff6f9"/><stop offset="1" stop-color="#ceeffd" stop-opacity="0.49"/></linearGradient><linearGradient id="e" x1="0.5" x2="0.5" y2="1" gradientUnits="objectBoundingBox"><stop offset="0" stop-color="#eff6f9"/><stop offset="1" stop-color="#ceeffd" stop-opacity="0.102"/></linearGradient><linearGradient id="f" x1="0.5" x2="0.5" y2="1" gradientUnits="objectBoundingBox"><stop offset="0" stop-color="#eff6f9"/><stop offset="1" stop-color="#ceeffd"/></linearGradient></defs><g transform="translate(-897.835 -273.889)"><rect width="85" height="202" rx="42.5" transform="matrix(0.819, 0.574, -0.574, 0.819, 1061.862, 428.777)" fill="url(#a)"/><rect width="19" height="364" rx="9.5" transform="matrix(0.819, 0.574, -0.574, 0.819, 1106.617, 273.889)" fill="url(#a)"/><rect width="40" height="383" rx="20" transform="matrix(0.819, 0.574, -0.574, 0.819, 1284.745, 525.685)" fill="url(#c)"/><rect width="40" height="163" rx="20" transform="matrix(0.819, 0.574, -0.574, 0.819, 1348.239, 475.165)" fill="url(#d)"/><rect width="63" height="202" rx="31.5" transform="matrix(0.819, 0.574, -0.574, 0.819, 1125.639, 620.507)" fill="url(#e)"/><rect width="85" height="202" rx="42.5" transform="matrix(0.819, 0.574, -0.574, 0.819, 1164.617, 367.889)" fill="url(#f)"/></g></svg>